<?xml version="1.0" standalone="no"?>
<!DOCTYPE svg PUBLIC "-//W3C//DTD SVG 20010904//EN"
 "http://www.w3.org/TR/2001/REC-SVG-20010904/DTD/svg10.dtd">
<svg version="1.0" xmlns="http://www.w3.org/2000/svg"
 width="617.000000pt" height="617.000000pt" viewBox="0 0 617.000000 617.000000"
 preserveAspectRatio="xMidYMid meet">

<g transform="translate(0.000000,617.000000) scale(0.100000,-0.100000)"
fill="#fff" stroke="none">
<path d="M1410 4581 l-25 -20 4 -1262 c1 -702 7 -1273 12 -1286 l9 -23 257 0
c394 0 676 -29 993 -101 160 -36 280 -71 356 -105 72 -32 94 -31 199 11 100
39 307 94 465 124 274 52 508 71 864 71 l245 0 20 26 c21 27 21 27 21 1285 l0
1258 -30 21 c-26 19 -40 21 -103 17 -39 -3 -169 -10 -287 -16 -118 -6 -235
-15 -260 -20 -25 -6 -88 -15 -140 -21 -98 -10 -143 -18 -265 -44 -38 -8 -97
-21 -130 -28 -33 -7 -64 -16 -70 -19 -5 -4 -30 -10 -55 -13 -25 -4 -54 -11
-65 -15 -11 -5 -47 -17 -80 -26 -33 -10 -74 -24 -92 -32 -17 -7 -37 -13 -45
-13 -8 0 -19 -5 -26 -12 -15 -15 -113 -16 -144 -1 -22 11 -143 52 -257 87 -29
9 -62 16 -72 16 -10 0 -20 4 -23 9 -3 5 -34 12 -68 16 -35 4 -67 10 -73 14
-23 14 -197 46 -335 61 -52 6 -115 15 -140 21 -25 5 -146 14 -270 20 -124 6
-256 13 -295 15 -58 4 -74 1 -95 -15z m355 -126 c311 -19 460 -38 710 -91 201
-42 534 -139 556 -161 5 -5 8 -438 7 -1138 -3 -1057 -4 -1130 -20 -1133 -10
-2 -32 3 -50 12 -18 8 -53 18 -78 22 -24 3 -51 10 -60 15 -14 8 -37 13 -160
40 -96 21 -208 40 -285 50 -44 5 -105 14 -135 20 -30 6 -199 13 -375 15 -202
4 -328 9 -342 16 l-23 11 0 1169 c0 642 3 1168 8 1168 4 0 115 -7 247 -15z
m2929 -7 c3 -13 6 -539 6 -1169 l0 -1146 -22 -11 c-15 -7 -136 -12 -333 -16
-170 -2 -335 -9 -365 -15 -30 -6 -91 -15 -135 -20 -152 -18 -393 -67 -450 -91
-11 -5 -40 -12 -65 -16 -25 -3 -50 -10 -56 -15 -6 -5 -32 -12 -58 -15 l-46 -7
0 1141 0 1140 93 31 c367 120 736 190 1112 211 105 6 199 12 210 14 11 2 39 4
61 5 35 1 43 -2 48 -21z"/>
<path d="M2191 3579 c-11 -5 -22 -27 -30 -65 -7 -33 -17 -68 -21 -79 -5 -11
-14 -42 -20 -70 -6 -27 -17 -72 -23 -100 -6 -27 -14 -52 -17 -55 -6 -6 -27
-90 -39 -160 -4 -25 -12 -61 -19 -80 -6 -19 -20 -64 -31 -100 l-19 -65 75 -3
c42 -2 82 -1 88 2 7 2 17 32 24 65 l12 61 97 0 c110 0 121 -7 131 -85 l6 -40
88 -3 c54 -2 87 1 87 7 0 6 -24 100 -54 208 -30 109 -75 280 -102 380 l-47
182 -84 3 c-47 2 -92 0 -102 -3z m89 -215 c0 -8 7 -25 15 -37 8 -13 17 -56 21
-97 3 -41 11 -85 17 -98 18 -37 -2 -56 -58 -60 -26 -2 -51 0 -56 5 -10 10 43
313 53 307 5 -3 8 -12 8 -20z"/>
<path d="M3703 3574 c-2 -6 -3 -40 -1 -75 l3 -64 110 -5 c109 -5 110 -5 113
-30 2 -16 -9 -43 -27 -70 -17 -25 -31 -53 -31 -62 0 -9 -4 -20 -10 -23 -5 -3
-10 -13 -10 -22 0 -9 -20 -58 -45 -110 -25 -51 -45 -97 -45 -101 0 -13 -62
-156 -76 -177 -8 -11 -14 -23 -14 -27 0 -5 115 -8 255 -8 l255 0 0 74 c0 63
-3 75 -17 80 -23 6 -130 0 -165 -9 -19 -5 -32 -2 -47 12 -20 18 -19 20 113
318 133 299 133 300 107 302 -14 1 -124 4 -245 5 -153 2 -220 0 -223 -8z"/>
<path d="M1197 4222 c-16 -17 -17 -118 -17 -1254 0 -1184 1 -1236 18 -1251 17
-16 82 -17 733 -17 l714 0 37 -39 c21 -21 64 -52 96 -69 93 -50 157 -62 327
-62 214 0 301 27 417 129 l46 41 710 0 c684 0 711 1 733 19 l24 19 0 1236 c0
1223 0 1235 -20 1250 -27 20 -69 20 -86 -1 -12 -13 -14 -211 -16 -1182 -1
-641 -5 -1176 -8 -1188 l-5 -23 -695 -2 -694 -3 -53 -51 c-63 -60 -92 -79
-136 -88 -17 -4 -34 -12 -37 -17 -8 -11 -352 -12 -359 0 -3 4 -20 11 -37 15
-33 6 -97 54 -149 110 l-30 31 -686 2 c-377 1 -694 5 -705 8 -19 6 -19 28 -19
1186 0 795 -3 1187 -10 1200 -14 25 -71 26 -93 1z"/>
</g>
</svg>
